Coordinates
version=1
nRows=21
nColumns=22
inDegrees=yes

Units are S.I. units (second, meters, Newtons, ...)
If the header above contains a line with 'inDegrees', this indicates whether rotational values are in degrees (yes) or radians (no).

endheader
time	pelvis_tilt	pelvis_list	pelvis_rotation	pelvis_tx	pelvis_ty	pelvis_tz	hip_flexion_r	hip_adduction_r	hip_rotation_r	knee_angle_r	ankle_angle_r	subtalar_angle_r	hip_flexion_l	hip_adduction_l	hip_rotation_l	knee_angle_l	ankle_angle_l	subtalar_angle_l	lumbar_extension	lumbar_bending	lumbar_rotation
      2.82000000	      2.83577596	     -3.87129491	     27.26956304	      0.15370407	      1.05571887	      0.88038158	     20.45631252	      5.29079046	      3.99782056	    -20.18006150	      3.04180988	      2.31315647	     -8.85447913	      0.78670213	     12.38100899	    -29.65568141	     12.78651922	      2.23441429	     -4.17021307	      2.72383644	     -8.78733455
      2.83000000	      3.00502987	     -3.97214543	     27.86820849	      0.16321165	      1.05704890	      0.87631236	     19.94169966	      5.39119370	      3.62065796	    -20.53377041	      3.50176007	      2.04638009	     -8.36070659	      0.54906575	     12.62100856	    -31.45361183	     10.94753186	      3.82349782	     -4.09024165	      2.91958840	     -9.01704047
      2.84000000	      3.16256740	     -4.04813879	     28.48540398	      0.17257917	      1.05839425	      0.87224089	     19.35568814	      5.46321861	      3.18272642	    -20.74264445	      3.92422112	      1.65497230	     -7.74421357	      0.32703727	     12.78904622	    -33.36966000	      8.94414626	      5.58824199	     -4.01885863	      3.07891475	     -9.22343220
      2.85000000	      3.31403370	     -4.11223060	     29.08495841	      0.18180881	      1.05973536	      0.86822206	     18.69370475	      5.53315981	      2.71858035	    -20.78983926	      4.28908366	      1.16683212	     -6.99995848	      0.10343838	     12.82663775	    -35.40182903	      6.84559740	      7.52676648	     -3.96075458	      3.21590272	     -9.35951764
      2.86000000	      3.48019884	     -4.17789711	     29.73870198	      0.19080718	      1.06101939	      0.86414522	     17.98263167	      5.59141658	      2.10085580	    -20.74746941	      4.69811489	      0.63936063	     -6.12840474	     -0.15244195	     12.80285053	    -37.55443444	      4.77274200	      9.45598470	     -3.93191576	      3.36584417	     -9.49902515
      2.87000000	      3.66239422	     -4.25810608	     30.35842775	      0.19965130	      1.06225166	      0.86021449	     17.22411856	      5.69592054	      1.50163398	    -20.60175056	      5.05189442	      0.10209237	     -5.13801675	     -0.46073550	     12.62569282	    -39.79244481	      2.81329708	     11.44959103	     -3.93341766	      3.52389444	     -9.55116861
      2.88000000	      3.86596623	     -4.34574930	     30.94762757	      0.20831197	      1.06341726	      0.85639802	     16.42915779	      5.83901583	      0.93311769	    -20.39042306	      5.39036705	     -0.38700570	     -4.04468396	     -0.82144334	     12.30943231	    -42.08953581	      1.07115749	     13.34029665	     -3.97656635	      3.69321008	     -9.52075068
      2.89000000	      4.10352946	     -4.47364939	     31.53979041	      0.21677765	      1.06447726	      0.85267180	     15.61931327	      6.04291948	      0.31696475	    -20.13470606	      5.74756472	     -0.80286663	     -2.84415021	     -1.27910650	     11.90225227	    -44.43136993	     -0.32075730	     14.89287222	     -4.05330837	      3.91270441	     -9.43524741
      2.90000000	      4.37348809	     -4.62464001	     32.10073695	      0.22505677	      1.06545271	      0.84908886	     14.79913729	      6.30776915	     -0.25564090	    -19.85763880	      6.09005963	     -1.13055226	     -1.56503610	     -1.81551770	     11.40129844	    -46.77114150	     -1.31151548	     15.99755648	     -4.17494070	      4.16488509	     -9.27053568
      2.91000000	      4.70227244	     -4.78956761	     32.62403599	      0.23319196	      1.06641947	      0.84564532	     13.93173171	      6.64479553	     -0.75240202	    -19.54406095	      6.38645653	     -1.29758995	     -0.26577596	     -2.43585669	     10.83048933	    -49.05007532	     -1.93321876	     16.38680122	     -4.36811002	      4.45767653	     -9.03123491
      2.92000000	      4.99875494	     -4.96402913	     33.09862656	      0.24116844	      1.06724900	      0.84237066	     13.13608185	      6.99559346	     -1.20573424	    -19.26870530	      6.73019725	     -1.51638314	      1.11738218	     -3.07018109	     10.24648256	    -51.24015519	     -2.08236194	     16.48863442	     -4.54711602	      4.72373896	     -8.68953550
      2.93000000	      5.29782569	     -5.13521952	     33.53040564	      0.24904653	      1.06808013	      0.83917633	     12.32417772	      7.37014890	     -1.55973069	    -18.94765877	      7.03609190	     -1.66371216	      2.50809544	     -3.71622066	      9.66463074	    -53.27065385	     -1.94387535	     15.91178677	     -4.73577184	      4.98303876	     -8.29672251
      2.94000000	      5.60249820	     -5.27396526	     33.91296040	      0.25680120	      1.06894452	      0.83605505	     11.49504095	      7.74113257	     -1.81799752	    -18.62118446	      7.32861985	     -1.74676139	      3.86020919	     -4.33048702	      9.11535021	    -55.10521428	     -1.50935375	     14.80357196	     -4.96257443	      5.21077710	     -7.84970800
      2.95000000	      5.88504360	     -5.36947910	     34.25437786	      0.26444297	      1.06985474	      0.83293959	     10.65977431	      8.07385025	     -2.01916114	    -18.28085010	      7.59262085	     -1.80391395	      5.16623433	     -4.86397962	      8.63824539	    -56.70434045	     -0.86732657	     13.40723524	     -5.19716799	      5.38204001	     -7.34220808
      2.96000000	      6.13314737	     -5.41404454	     34.56233693	      0.27194873	      1.07081487	      0.82978663	      9.82076500	      8.34844454	     -2.17283503	    -17.92403505	      7.83200347	     -1.85150936	      6.41890815	     -5.28455678	      8.24848991	    -58.04957541	     -0.10786133	     11.86839578	     -5.43211156	      5.48864473	     -6.80733594
      2.97000000	      6.34345474	     -5.41960992	     34.85237984	      0.27931472	      1.07181604	      0.82655075	      8.96840828	      8.57076835	     -2.27216458	    -17.51768328	      8.05903827	     -1.89601031	      7.62144589	     -5.58799266	      7.96118014	    -59.13356276	      0.68157067	     10.37343631	     -5.65169485	      5.54630431	     -6.27860371
      2.98000000	      6.49361564	     -5.34811804	     35.11786944	      0.28649454	      1.07286633	      0.82320651	      8.12515574	      8.68215444	     -2.38272444	    -17.10967219	      8.24816211	     -1.94187192	      8.75278576	     -5.71054986	      7.76750308	    -59.93753257	      1.47379081	      8.97004391	     -5.86547858	      5.50540611	     -5.73439201
      2.99000000	      6.59721084	     -5.22970141	     35.37113157	      0.29346505	      1.07393184	      0.81972884	      7.29115827	      8.71441402	     -2.50767007	    -16.68931322	      8.42358581	     -1.98906957	      9.82856179	     -5.69043738	      7.65594456	    -60.47947124	      2.18053853	      7.79340019	     -6.06923271	      5.41206211	     -5.18875845
      3.00000000	      6.63871237	     -5.05685917	     35.61094082	      0.30024676	      1.07499026	      0.81611891	      6.47147018	      8.65220210	     -2.64484735	    -16.25289665	      8.60956177	     -2.03278920	     10.84913183	     -5.51946860	      7.60224085	    -60.75592880	      2.79301330	      6.88385050	     -6.25204649	      5.24682409	     -4.66142531
      3.01000000	      6.62524899	     -4.85236583	     35.83672217	      0.30684786	      1.07600753	      0.81237793	      5.67374397	      8.51968104	     -2.78988943	    -15.80026642	      8.79181925	     -2.06034211	     11.82614706	     -5.23303222	      7.58657502	    -60.78528141	      3.31044427	      6.30232541	     -6.40638124	      5.03686549	     -4.15162861
      3.02000000	      6.55073865	     -4.67538375	     36.05340683	      0.31330131	      1.07688819	      0.80854528	      4.94110262	      8.36849984	     -2.92767341	    -15.33072477	      8.94969321	     -2.05036602	     12.81486003	     -4.90295685	      7.59021299	    -60.59889387	      3.79628583	      6.14752902	     -6.48555884	      4.82941786	     -3.66735428
